<svg width="250" height="150" xmlns="http://www.w3.org/2000/svg">
 <metadata id="metadata10200">image/svg+xml</metadata>

 <g>
  <title>Layer 1</title>
  <g id="svg_2">
   <path id="path8115" d="m124.99997,4.21274c1.95692,0 3.54331,1.5864 3.54331,3.54331c0,1.95692 -1.58639,3.54331 -3.54331,3.54331c-1.95691,0 -3.54331,-1.58639 -3.54331,-3.54331c0,-1.95691 1.5864,-3.54331 3.54331,-3.54331z" fill="#cccccc" opacity="0.5"/>
   <path d="m124.99996,5.63006c1.17415,0 2.12599,0.95184 2.12599,2.12599c0,1.17415 -0.95184,2.12599 -2.12599,2.12599c-1.17415,0 -2.12599,-0.95183 -2.12599,-2.12599c0,-1.17415 0.95184,-2.12599 2.12599,-2.12599z" id="path8117" fill="#000000"/>
   <path d="m108.15053,16.45457c0.60472,-1.86114 2.6037,-2.87966 4.46483,-2.27495c1.86114,0.60472 2.87967,2.60369 2.27495,4.46483c-0.60472,1.86113 -2.60369,2.87967 -4.46483,2.27495c-1.86113,-0.60472 -2.87966,-2.6037 -2.27495,-4.46483z" id="path8119" fill="#cccccc" opacity="0.5"/>
   <path id="path8121" d="m109.49849,16.89255c0.36283,-1.11668 1.56222,-1.7278 2.6789,-1.36497c1.11669,0.36283 1.7278,1.56222 1.36497,2.6789c-0.36283,1.11668 -1.56221,1.7278 -2.6789,1.36497c-1.11668,-0.36283 -1.7278,-1.56222 -1.36497,-2.6789z" fill="#000000"/>
   <path id="path8123" d="m114.58645,36.26224c-1.58318,-1.15025 -1.93414,-3.36613 -0.78389,-4.9493c1.15025,-1.58318 3.36612,-1.93414 4.94931,-0.78389c1.58317,1.15024 1.93414,3.36612 0.78389,4.9493c-1.15024,1.58317 -3.36613,1.93414 -4.94931,0.78389z" fill="#cccccc" opacity="0.5"/>
   <path d="m115.41953,35.1156c-0.94991,-0.69015 -1.16048,-2.01968 -0.47034,-2.96958c0.69015,-0.94991 2.01967,-1.16048 2.96958,-0.47034c0.9499,0.69015 1.16049,2.01967 0.47034,2.96958c-0.69015,0.9499 -2.01968,1.16048 -2.96958,0.47034z" id="path8125" fill="#000000"/>
   <path d="m135.4135,36.26226c-1.58318,1.15025 -3.79906,0.79928 -4.94931,-0.78389c-1.15025,-1.58318 -0.79929,-3.79906 0.78389,-4.9493c1.58317,-1.15024 3.79905,-0.79929 4.94931,0.78389c1.15024,1.58317 0.79928,3.79906 -0.78389,4.9493z" id="path8127" fill="#cccccc" opacity="0.5"/>
   <path id="path8129" d="m134.58042,35.1156c-0.94991,0.69015 -2.27944,0.47957 -2.96958,-0.47034c-0.69015,-0.94991 -0.47957,-2.27943 0.47034,-2.96958c0.9499,-0.69015 2.27943,-0.47957 2.96958,0.47034c0.69015,0.9499 0.47957,2.27944 -0.47034,2.96958z" fill="#000000"/>
   <path id="path8131" d="m141.84943,16.45457c0.60472,1.86114 -0.41381,3.86011 -2.27495,4.46483c-1.86114,0.60472 -3.86011,-0.41381 -4.46483,-2.27495c-0.60472,-1.86113 0.4138,-3.86011 2.27495,-4.46483c1.86113,-0.60472 3.86011,0.41381 4.46483,2.27495z" fill="#cccccc" opacity="0.5"/>
   <path d="m140.50142,16.89255c0.36283,1.11668 -0.24829,2.31607 -1.36497,2.6789c-1.11669,0.36283 -2.31607,-0.24828 -2.6789,-1.36497c-0.36283,-1.11668 0.24828,-2.31607 1.36497,-2.6789c1.11668,-0.36283 2.31607,0.24829 2.6789,1.36497z" id="path8133" fill="#000000"/>
   <g id="svg_1">
    <path d="m217.87054,127.87833l21.89969,15.80639l-8.44616,-25.76081l-13.45353,9.95442z" id="path8807" stroke-dashoffset="0" stroke-miterlimit="4" stroke-linejoin="round" stroke-linecap="round" stroke-width="7.08661" stroke="#00a900" fill-rule="nonzero" fill="#00a900" opacity="0.5"/>
    <path d="m222.95939,143.74038l21.79789,-15.81707" id="path8809" stroke-dashoffset="0" stroke-miterlimit="4" stroke-linejoin="round" stroke-linecap="round" stroke-width="7.08661" stroke="#cc00ca" fill="none" opacity="0.5"/>
    <path d="m231.29922,115.89548c1.17415,0 2.12599,0.95184 2.12599,2.12599c0,1.17415 -0.95184,2.12599 -2.12599,2.12599c-1.17415,0 -2.12599,-0.95183 -2.12599,-2.12599c0,-1.17415 0.95184,-2.12599 2.12599,-2.12599z" id="path8811" fill="#000000"/>
    <path id="path8813" d="m215.79775,127.15793c0.36283,-1.11668 1.56222,-1.7278 2.6789,-1.36497c1.11669,0.36283 1.7278,1.56222 1.36497,2.6789c-0.36283,1.11668 -1.56221,1.7278 -2.6789,1.36497c-1.11668,-0.36283 -1.7278,-1.56222 -1.36497,-2.6789z" fill="#000000"/>
    <path d="m221.71878,145.38103c-0.94991,-0.69015 -1.16048,-2.01968 -0.47034,-2.96958c0.69015,-0.94991 2.01967,-1.16048 2.96958,-0.47034c0.9499,0.69015 1.16049,2.01967 0.47034,2.96958c-0.69015,0.9499 -2.01968,1.16048 -2.96958,0.47034z" id="path8815" fill="#000000"/>
    <path id="path8817" d="m240.87964,145.381c-0.94991,0.69015 -2.27944,0.47957 -2.96958,-0.47034c-0.69015,-0.94991 -0.47957,-2.27943 0.47034,-2.96958c0.9499,-0.69015 2.27943,-0.47957 2.96958,0.47034c0.69015,0.9499 0.47957,2.27944 -0.47034,2.96958z" fill="#000000"/>
    <path d="m246.80067,127.15792c0.36283,1.11668 -0.24829,2.31607 -1.36497,2.6789c-1.11669,0.36283 -2.31607,-0.24828 -2.6789,-1.36497c-0.36283,-1.11668 0.24828,-2.31607 1.36497,-2.6789c1.11668,-0.36283 2.31607,0.24829 2.6789,1.36497z" id="path8819" fill="#000000"/>
    <path d="m116.63902,143.72372l16.832,0l-8.44616,-25.88147l-8.38584,25.88147z" id="path8825" stroke-dashoffset="0" stroke-miterlimit="4" stroke-linejoin="round" stroke-linecap="round" stroke-width="7.08661" stroke="#00a900" fill-rule="nonzero" fill="#00a900" opacity="0.5"/>
    <path d="m111.57455,127.88038l26.9952,0" id="path8827" stroke-dashoffset="0" stroke-miterlimit="4" stroke-linejoin="round" stroke-linecap="round" stroke-width="7.08661" stroke="#cc00ca" fill="none" opacity="0.5"/>
    <path d="m124.99999,115.89542c1.17415,0 2.12599,0.95184 2.12599,2.12599c0,1.17415 -0.95184,2.12599 -2.12599,2.12599c-1.17415,0 -2.12599,-0.95183 -2.12599,-2.12599c0,-1.17415 0.95184,-2.12599 2.12599,-2.12599z" id="path8829" fill="#000000"/>
    <path id="path8831" d="m109.49855,127.15793c0.36283,-1.11668 1.56222,-1.7278 2.6789,-1.36497c1.11669,0.36283 1.7278,1.56222 1.36497,2.6789c-0.36283,1.11668 -1.56221,1.7278 -2.6789,1.36497c-1.11668,-0.36283 -1.7278,-1.56222 -1.36497,-2.6789z" fill="#000000"/>
    <path d="m115.41956,145.38097c-0.94991,-0.69015 -1.16048,-2.01968 -0.47034,-2.96958c0.69015,-0.94991 2.01967,-1.16048 2.96958,-0.47034c0.9499,0.69015 1.16049,2.01967 0.47034,2.96958c-0.69015,0.9499 -2.01968,1.16048 -2.96958,0.47034z" id="path8833" fill="#000000"/>
    <path id="path8835" d="m134.58045,145.381c-0.94991,0.69015 -2.27944,0.47957 -2.96958,-0.47034c-0.69015,-0.94991 -0.47957,-2.27943 0.47034,-2.96958c0.9499,-0.69015 2.27943,-0.47957 2.96958,0.47034c0.69015,0.9499 0.47957,2.27944 -0.47034,2.96958z" fill="#000000"/>
    <path d="m140.50148,127.15792c0.36283,1.11668 -0.24829,2.31607 -1.36497,2.6789c-1.11669,0.36283 -2.31607,-0.24828 -2.6789,-1.36497c-0.36283,-1.11668 0.24828,-2.31607 1.36497,-2.6789c1.11668,-0.36283 2.31607,0.24829 2.6789,1.36497z" id="path8837" fill="#000000"/>
    <path d="m18.78597,117.95938l13.51386,9.89408l-21.96003,15.8064l8.44617,-25.70048z" id="path8879" stroke-dashoffset="0" stroke-miterlimit="4" stroke-linejoin="round" stroke-linecap="round" stroke-width="7.08661" stroke="#00a900" fill-rule="nonzero" fill="#00a900" opacity="0.5"/>
    <path d="m27.14666,143.7009l-21.82945,-15.88607" id="path8881" stroke-dashoffset="0" stroke-miterlimit="4" stroke-linejoin="round" stroke-linecap="round" stroke-width="7.08661" stroke="#cc00ca" fill="none" opacity="0.5"/>
    <path d="m18.70077,115.89554c1.17415,0 2.12599,0.95184 2.12599,2.12599c0,1.17415 -0.95184,2.12599 -2.12599,2.12599c-1.17415,0 -2.12599,-0.95183 -2.12599,-2.12599c0,-1.17415 0.95184,-2.12599 2.12599,-2.12599z" id="path8883" fill="#000000"/>
    <path id="path8885" d="m3.19933,127.15799c0.36283,-1.11668 1.56222,-1.7278 2.6789,-1.36497c1.11669,0.36283 1.7278,1.56222 1.36497,2.6789c-0.36283,1.11668 -1.56221,1.7278 -2.6789,1.36497c-1.11668,-0.36283 -1.7278,-1.56222 -1.36497,-2.6789z" fill="#000000"/>
    <path d="m9.12035,145.38109c-0.94991,-0.69015 -1.16048,-2.01968 -0.47034,-2.96958c0.69015,-0.94991 2.01967,-1.16048 2.96958,-0.47034c0.9499,0.69015 1.16049,2.01967 0.47034,2.96958c-0.69015,0.9499 -2.01968,1.16048 -2.96958,0.47034z" id="path8887" fill="#000000"/>
    <path id="path8889" d="m28.28122,145.38106c-0.94991,0.69015 -2.27944,0.47957 -2.96958,-0.47034c-0.69015,-0.94991 -0.47957,-2.27943 0.47034,-2.96958c0.9499,-0.69015 2.27943,-0.47957 2.96958,0.47034c0.69015,0.9499 0.47957,2.27944 -0.47034,2.96958z" fill="#000000"/>
    <path d="m34.20226,127.15804c0.36283,1.11668 -0.24829,2.31607 -1.36497,2.6789c-1.11669,0.36283 -2.31607,-0.24828 -2.6789,-1.36497c-0.36283,-1.11668 0.24828,-2.31607 1.36497,-2.6789c1.11668,-0.36283 2.31607,0.24829 2.6789,1.36497z" id="path8891" fill="#000000"/>
    <path d="m164.66056,127.83201l5.12802,15.86672l21.96003,-15.92705l-27.08805,0.0603l0,0.00003z" id="path8897" stroke-dashoffset="0" stroke-miterlimit="4" stroke-linejoin="round" stroke-linecap="round" stroke-width="7.08661" stroke="#00a900" fill-rule="nonzero" fill="#00a900" opacity="0.5"/>
    <path d="m186.60903,143.69773l-8.44295,-25.66211" id="path8899" stroke-dashoffset="0" stroke-miterlimit="4" stroke-linejoin="round" stroke-linecap="round" stroke-width="7.08661" stroke="#cc00ca" fill="none" opacity="0.5"/>
    <path d="m178.14956,115.89536c1.17415,0 2.12599,0.95184 2.12599,2.12599c0,1.17415 -0.95184,2.12599 -2.12599,2.12599c-1.17415,0 -2.12599,-0.95183 -2.12599,-2.12599c0,-1.17415 0.95184,-2.12599 2.12599,-2.12599z" id="path8901" fill="#000000"/>
    <path id="path8903" d="m162.64812,127.15787c0.36283,-1.11668 1.56222,-1.7278 2.6789,-1.36497c1.11669,0.36283 1.7278,1.56222 1.36497,2.6789c-0.36283,1.11668 -1.56221,1.7278 -2.6789,1.36497c-1.11668,-0.36283 -1.7278,-1.56222 -1.36497,-2.6789z" fill="#000000"/>
    <path d="m168.56912,145.3809c-0.94991,-0.69015 -1.16048,-2.01968 -0.47034,-2.96958c0.69015,-0.94991 2.01967,-1.16048 2.96958,-0.47034c0.9499,0.69015 1.16049,2.01967 0.47034,2.96958c-0.69015,0.9499 -2.01968,1.16048 -2.96958,0.47034z" id="path8905" fill="#000000"/>
    <path id="path8907" d="m187.73002,145.38094c-0.94991,0.69015 -2.27944,0.47957 -2.96958,-0.47034c-0.69015,-0.94991 -0.47957,-2.27943 0.47034,-2.96958c0.9499,-0.69015 2.27943,-0.47957 2.96958,0.47034c0.69015,0.9499 0.47957,2.27944 -0.47034,2.96958z" fill="#000000"/>
    <path d="m193.65102,127.15786c0.36283,1.11668 -0.24829,2.31607 -1.36497,2.6789c-1.11669,0.36283 -2.31607,-0.24828 -2.6789,-1.36497c-0.36283,-1.11668 0.24828,-2.31607 1.36497,-2.6789c1.11668,-0.36283 2.31607,0.24829 2.6789,1.36497z" id="path8909" fill="#000000"/>
    <path d="m85.57009,127.72907l-5.42968,15.98739l-21.77903,-15.86673l27.20871,-0.12066z" id="path8933" stroke-dashoffset="0" stroke-miterlimit="4" stroke-linejoin="round" stroke-linecap="round" stroke-width="7.08661" stroke="#00a900" fill-rule="nonzero" fill="#00a900" opacity="0.5"/>
    <path d="m63.47363,143.8394l8.3972,-25.81941" id="path8935" stroke-dashoffset="0" stroke-miterlimit="4" stroke-linejoin="round" stroke-linecap="round" stroke-width="7.08661" stroke="#cc00ca" fill="none" opacity="0.5"/>
    <path d="m71.85039,115.89542c1.17415,0 2.12599,0.95184 2.12599,2.12599c0,1.17415 -0.95184,2.12599 -2.12599,2.12599c-1.17415,0 -2.12599,-0.95183 -2.12599,-2.12599c0,-1.17415 0.95184,-2.12599 2.12599,-2.12599z" id="path8937" fill="#000000"/>
    <path id="path8939" d="m56.34892,127.15787c0.36283,-1.11668 1.56222,-1.7278 2.6789,-1.36497c1.11669,0.36283 1.7278,1.56222 1.36497,2.6789c-0.36283,1.11668 -1.56221,1.7278 -2.6789,1.36497c-1.11668,-0.36283 -1.7278,-1.56222 -1.36497,-2.6789z" fill="#000000"/>
    <path d="m62.26995,145.38097c-0.94991,-0.69015 -1.16048,-2.01968 -0.47034,-2.96958c0.69015,-0.94991 2.01967,-1.16048 2.96958,-0.47034c0.9499,0.69015 1.16049,2.01967 0.47034,2.96958c-0.69015,0.9499 -2.01968,1.16048 -2.96958,0.47034z" id="path8941" fill="#000000"/>
    <path id="path8943" d="m81.43082,145.38094c-0.94991,0.69015 -2.27944,0.47957 -2.96958,-0.47034c-0.69015,-0.94991 -0.47957,-2.27943 0.47034,-2.96958c0.9499,-0.69015 2.27943,-0.47957 2.96958,0.47034c0.69015,0.9499 0.47957,2.27944 -0.47034,2.96958z" fill="#000000"/>
    <path d="m87.35185,127.15786c0.36283,1.11668 -0.24829,2.31607 -1.36497,2.6789c-1.11669,0.36283 -2.31607,-0.24828 -2.6789,-1.36497c-0.36283,-1.11668 0.24828,-2.31607 1.36497,-2.6789c1.11668,-0.36283 2.31607,0.24829 2.6789,1.36497z" id="path8945" fill="#000000"/>
    <path d="m72.0313,66.43868l-13.73258,9.80034l5.20265,15.97092l8.52993,-25.77126z" id="path8789" stroke-dashoffset="0" stroke-miterlimit="4" stroke-linejoin="round" stroke-linecap="round" stroke-width="7.08661" stroke="#00a900" fill="#00a900" opacity="0.5"/>
    <path d="m85.34294,76.36216l-5.11957,15.83399" id="path8791" stroke-dashoffset="0" stroke-miterlimit="4" stroke-linejoin="round" stroke-linecap="round" stroke-width="7.08661" stroke="#cc00ca" fill="none" opacity="0.5"/>
    <path d="m71.85039,64.35636c1.17415,0 2.12599,0.95184 2.12599,2.12599c0,1.17415 -0.95184,2.12599 -2.12599,2.12599c-1.17415,0 -2.12599,-0.95183 -2.12599,-2.12599c0,-1.17415 0.95184,-2.12599 2.12599,-2.12599z" id="path8793" fill="#000000"/>
    <path id="path8795" d="m56.34892,75.6188c0.36283,-1.11668 1.56222,-1.7278 2.6789,-1.36497c1.11669,0.36283 1.7278,1.56222 1.36497,2.6789c-0.36283,1.11668 -1.56221,1.7278 -2.6789,1.36497c-1.11668,-0.36283 -1.7278,-1.56222 -1.36497,-2.6789z" fill="#000000"/>
    <path d="m62.26995,93.84184c-0.94991,-0.69015 -1.16048,-2.01968 -0.47034,-2.96958c0.69015,-0.94991 2.01967,-1.16048 2.96958,-0.47034c0.9499,0.69015 1.16049,2.01967 0.47034,2.96958c-0.69015,0.9499 -2.01968,1.16048 -2.96958,0.47034z" id="path8797" fill="#000000"/>
    <path id="path8799" d="m81.43082,93.84188c-0.94991,0.69015 -2.27944,0.47957 -2.96958,-0.47034c-0.69015,-0.94991 -0.47957,-2.27943 0.47034,-2.96958c0.9499,-0.69015 2.27943,-0.47957 2.96958,0.47034c0.69015,0.9499 0.47957,2.27944 -0.47034,2.96958z" fill="#000000"/>
    <path d="m87.35185,75.61879c0.36283,1.11668 -0.24829,2.31607 -1.36497,2.6789c-1.11669,0.36283 -2.31607,-0.24828 -2.6789,-1.36497c-0.36283,-1.11668 0.24828,-2.31607 1.36497,-2.6789c1.11668,-0.36283 2.31607,0.24829 2.6789,1.36497z" id="path8801" fill="#000000"/>
    <path d="m10.40013,92.22369l16.71134,-0.12066l-21.89969,-15.86672l5.18835,15.98738z" id="path8843" stroke-dashoffset="0" stroke-miterlimit="4" stroke-linejoin="round" stroke-linecap="round" stroke-width="7.08661" stroke="#00a900" fill-rule="nonzero" fill="#00a900" opacity="0.5"/>
    <path d="m32.33974,76.33831l-13.60869,-9.88713" id="path8845" stroke-dashoffset="0" stroke-miterlimit="4" stroke-linejoin="round" stroke-linecap="round" stroke-width="7.08661" stroke="#cc00ca" fill="none" opacity="0.5"/>
    <path d="m18.70077,64.35642c1.17415,0 2.12599,0.95184 2.12599,2.12599c0,1.17415 -0.95184,2.12599 -2.12599,2.12599c-1.17415,0 -2.12599,-0.95183 -2.12599,-2.12599c0,-1.17415 0.95184,-2.12599 2.12599,-2.12599z" id="path8847" fill="#000000"/>
    <path id="path8849" d="m3.19933,75.61886c0.36283,-1.11668 1.56222,-1.7278 2.6789,-1.36497c1.11669,0.36283 1.7278,1.56222 1.36497,2.6789c-0.36283,1.11668 -1.56221,1.7278 -2.6789,1.36497c-1.11668,-0.36283 -1.7278,-1.56222 -1.36497,-2.6789z" fill="#000000"/>
    <path d="m9.12035,93.84196c-0.94991,-0.69015 -1.16048,-2.01968 -0.47034,-2.96958c0.69015,-0.94991 2.01967,-1.16048 2.96958,-0.47034c0.9499,0.69015 1.16049,2.01967 0.47034,2.96958c-0.69015,0.9499 -2.01968,1.16048 -2.96958,0.47034z" id="path8851" fill="#000000"/>
    <path id="path8853" d="m28.28122,93.84194c-0.94991,0.69015 -2.27944,0.47957 -2.96958,-0.47034c-0.69015,-0.94991 -0.47957,-2.27943 0.47034,-2.96958c0.9499,-0.69015 2.27943,-0.47957 2.96958,0.47034c0.69015,0.9499 0.47957,2.27944 -0.47034,2.96958z" fill="#000000"/>
    <path d="m34.20226,75.61892c0.36283,1.11668 -0.24829,2.31607 -1.36497,2.6789c-1.11669,0.36283 -2.31607,-0.24828 -2.6789,-1.36497c-0.36283,-1.11668 0.24828,-2.31607 1.36497,-2.6789c1.11668,-0.36283 2.31607,0.24829 2.6789,1.36497z" id="path8855" fill="#000000"/>
    <path d="m111.63166,76.33562l26.96739,-0.12066l-13.63452,-9.89408l-13.33287,10.01474z" id="path8861" stroke-dashoffset="0" stroke-miterlimit="4" stroke-linejoin="round" stroke-linecap="round" stroke-width="7.08661" stroke="#00a900" fill-rule="nonzero" fill="#00a900" opacity="0.5"/>
    <path d="m116.65637,92.15107l16.71926,-0.0555" id="path8863" stroke-dashoffset="0" stroke-miterlimit="4" stroke-linejoin="round" stroke-linecap="round" stroke-width="7.08661" stroke="#cc00ca" fill="none" opacity="0.5"/>
    <path d="m124.99999,64.35636c1.17415,0 2.12599,0.95184 2.12599,2.12599c0,1.17415 -0.95184,2.12599 -2.12599,2.12599c-1.17415,0 -2.12599,-0.95183 -2.12599,-2.12599c0,-1.17415 0.95184,-2.12599 2.12599,-2.12599z" id="path8865" fill="#000000"/>
    <path id="path8867" d="m109.49855,75.61886c0.36283,-1.11668 1.56222,-1.7278 2.6789,-1.36497c1.11669,0.36283 1.7278,1.56222 1.36497,2.6789c-0.36283,1.11668 -1.56221,1.7278 -2.6789,1.36497c-1.11668,-0.36283 -1.7278,-1.56222 -1.36497,-2.6789z" fill="#000000"/>
    <path d="m115.41956,93.8419c-0.94991,-0.69015 -1.16048,-2.01968 -0.47034,-2.96958c0.69015,-0.94991 2.01967,-1.16048 2.96958,-0.47034c0.9499,0.69015 1.16049,2.01967 0.47034,2.96958c-0.69015,0.9499 -2.01968,1.16048 -2.96958,0.47034z" id="path8869" fill="#000000"/>
    <path id="path8871" d="m134.58045,93.84194c-0.94991,0.69015 -2.27944,0.47957 -2.96958,-0.47034c-0.69015,-0.94991 -0.47957,-2.27943 0.47034,-2.96958c0.9499,-0.69015 2.27943,-0.47957 2.96958,0.47034c0.69015,0.9499 0.47957,2.27944 -0.47034,2.96958z" fill="#000000"/>
    <path d="m140.50148,75.61886c0.36283,1.11668 -0.24829,2.31607 -1.36497,2.6789c-1.11669,0.36283 -2.31607,-0.24828 -2.6789,-1.36497c-0.36283,-1.11668 0.24828,-2.31607 1.36497,-2.6789c1.11668,-0.36283 2.31607,0.24829 2.6789,1.36497z" id="path8873" fill="#000000"/>
    <path d="m178.17442,66.43791l8.26517,25.7608l5.30902,-16.04771l-13.57419,-9.71309z" id="path8915" stroke-dashoffset="0" stroke-miterlimit="4" stroke-linejoin="round" stroke-linecap="round" stroke-width="7.08661" stroke="#00a900" fill-rule="nonzero" fill="#00a900" opacity="0.5"/>
    <path d="m169.9454,92.19763l-5.22129,-15.83052" id="path8917" stroke-dashoffset="0" stroke-miterlimit="4" stroke-linejoin="round" stroke-linecap="round" stroke-width="7.08661" stroke="#cc00ca" fill="none" opacity="0.5"/>
    <path d="m178.14956,64.35636c1.17415,0 2.12599,0.95184 2.12599,2.12599c0,1.17415 -0.95184,2.12599 -2.12599,2.12599c-1.17415,0 -2.12599,-0.95183 -2.12599,-2.12599c0,-1.17415 0.95184,-2.12599 2.12599,-2.12599z" id="path8919" fill="#000000"/>
    <path id="path8921" d="m162.64812,75.6188c0.36283,-1.11668 1.56222,-1.7278 2.6789,-1.36497c1.11669,0.36283 1.7278,1.56222 1.36497,2.6789c-0.36283,1.11668 -1.56221,1.7278 -2.6789,1.36497c-1.11668,-0.36283 -1.7278,-1.56222 -1.36497,-2.6789z" fill="#000000"/>
    <path d="m168.56912,93.8419c-0.94991,-0.69015 -1.16048,-2.01968 -0.47034,-2.96958c0.69015,-0.94991 2.01967,-1.16048 2.96958,-0.47034c0.9499,0.69015 1.16049,2.01967 0.47034,2.96958c-0.69015,0.9499 -2.01968,1.16048 -2.96958,0.47034z" id="path8923" fill="#000000"/>
    <path id="path8925" d="m187.73002,93.84188c-0.94991,0.69015 -2.27944,0.47957 -2.96958,-0.47034c-0.69015,-0.94991 -0.47957,-2.27943 0.47034,-2.96958c0.9499,-0.69015 2.27943,-0.47957 2.96958,0.47034c0.69015,0.9499 0.47957,2.27944 -0.47034,2.96958z" fill="#000000"/>
    <path d="m193.65102,75.61879c0.36283,1.11668 -0.24829,2.31607 -1.36497,2.6789c-1.11669,0.36283 -2.31607,-0.24828 -2.6789,-1.36497c-0.36283,-1.11668 0.24828,-2.31607 1.36497,-2.6789c1.11668,-0.36283 2.31607,0.24829 2.6789,1.36497z" id="path8927" fill="#000000"/>
    <path d="m222.93823,92.15607l16.77167,0l5.18836,-16.0477l-21.96003,16.0477z" id="path8951" stroke-dashoffset="0" stroke-miterlimit="4" stroke-linejoin="round" stroke-linecap="round" stroke-width="7.08661" stroke="#00a900" fill-rule="nonzero" fill="#00a900" opacity="0.5"/>
    <path d="m217.90519,76.41686l13.34134,-9.8098" id="path8953" stroke-dashoffset="0" stroke-miterlimit="4" stroke-linejoin="round" stroke-linecap="round" stroke-width="7.08661" stroke="#cc00ca" fill="none" opacity="0.5"/>
    <path d="m231.29922,64.35636c1.17415,0 2.12599,0.95184 2.12599,2.12599c0,1.17415 -0.95184,2.12599 -2.12599,2.12599c-1.17415,0 -2.12599,-0.95183 -2.12599,-2.12599c0,-1.17415 0.95184,-2.12599 2.12599,-2.12599z" id="path8955" fill="#000000"/>
    <path id="path8957" d="m215.79775,75.61886c0.36283,-1.11668 1.56222,-1.7278 2.6789,-1.36497c1.11669,0.36283 1.7278,1.56222 1.36497,2.6789c-0.36283,1.11668 -1.56221,1.7278 -2.6789,1.36497c-1.11668,-0.36283 -1.7278,-1.56222 -1.36497,-2.6789z" fill="#000000"/>
    <path d="m221.71878,93.8419c-0.94991,-0.69015 -1.16048,-2.01968 -0.47034,-2.96958c0.69015,-0.94991 2.01967,-1.16048 2.96958,-0.47034c0.9499,0.69015 1.16049,2.01967 0.47034,2.96958c-0.69015,0.9499 -2.01968,1.16048 -2.96958,0.47034z" id="path8959" fill="#000000"/>
    <path id="path8961" d="m240.87964,93.84194c-0.94991,0.69015 -2.27944,0.47957 -2.96958,-0.47034c-0.69015,-0.94991 -0.47957,-2.27943 0.47034,-2.96958c0.9499,-0.69015 2.27943,-0.47957 2.96958,0.47034c0.69015,0.9499 0.47957,2.27944 -0.47034,2.96958z" fill="#000000"/>
    <path d="m246.80067,75.61886c0.36283,1.11668 -0.24829,2.31607 -1.36497,2.6789c-1.11669,0.36283 -2.31607,-0.24828 -2.6789,-1.36497c-0.36283,-1.11668 0.24828,-2.31607 1.36497,-2.6789c1.11668,-0.36283 2.31607,0.24829 2.6789,1.36497z" id="path8963" fill="#000000"/>
   </g>
  </g>
 </g>
</svg>