<svg width="247.00000000000003" height="142" xmlns="http://www.w3.org/2000/svg">

 <metadata id="metadata10200">image/svg+xml</metadata>
 <g>
  <title>Layer 1</title>
  <g id="svg_1">
   <path opacity="0.5" fill="#cccccc" d="m123.32299,0c1.95692,0 3.54331,1.5864 3.54331,3.54331c0,1.95692 -1.58639,3.54331 -3.54331,3.54331c-1.95691,0 -3.54331,-1.58639 -3.54331,-3.54331c0,-1.95691 1.5864,-3.54331 3.54331,-3.54331z" id="path8115"/>
   <path fill="#000000" id="path8117" d="m123.32298,1.41732c1.17415,0 2.12599,0.95184 2.12599,2.12599c0,1.17415 -0.95184,2.12599 -2.12599,2.12599c-1.17415,0 -2.12599,-0.95183 -2.12599,-2.12599c0,-1.17415 0.95184,-2.12599 2.12599,-2.12599z"/>
   <path opacity="0.5" fill="#cccccc" id="path8119" d="m106.47355,12.24183c0.60472,-1.86114 2.6037,-2.87966 4.46483,-2.27495c1.86114,0.60472 2.87967,2.60369 2.27495,4.46483c-0.60472,1.86113 -2.60369,2.87967 -4.46483,2.27495c-1.86113,-0.60472 -2.87966,-2.6037 -2.27495,-4.46483z"/>
   <path fill="#000000" d="m107.82151,12.67981c0.36283,-1.11668 1.56222,-1.7278 2.6789,-1.36497c1.11669,0.36283 1.7278,1.56222 1.36497,2.6789c-0.36283,1.11668 -1.56221,1.7278 -2.6789,1.36497c-1.11668,-0.36283 -1.7278,-1.56222 -1.36497,-2.6789z" id="path8121"/>
   <path opacity="0.5" fill="#cccccc" d="m112.90947,32.0495c-1.58318,-1.15025 -1.93414,-3.36613 -0.78389,-4.9493c1.15025,-1.58318 3.36612,-1.93414 4.94931,-0.78389c1.58317,1.15024 1.93414,3.36612 0.78389,4.9493c-1.15024,1.58317 -3.36613,1.93414 -4.94931,0.78389z" id="path8123"/>
   <path fill="#000000" id="path8125" d="m113.74255,30.90286c-0.94991,-0.69015 -1.16048,-2.01968 -0.47034,-2.96958c0.69015,-0.94991 2.01967,-1.16048 2.96958,-0.47034c0.9499,0.69015 1.16049,2.01967 0.47034,2.96958c-0.69015,0.9499 -2.01968,1.16048 -2.96958,0.47034z"/>
   <path opacity="0.5" fill="#cccccc" id="path8127" d="m133.73652,32.04952c-1.58318,1.15025 -3.79906,0.79928 -4.94931,-0.78389c-1.15025,-1.58318 -0.79929,-3.79906 0.78389,-4.9493c1.58317,-1.15024 3.79905,-0.79929 4.94931,0.78389c1.15024,1.58317 0.79928,3.79906 -0.78389,4.9493z"/>
   <path fill="#000000" d="m132.90344,30.90286c-0.94991,0.69015 -2.27944,0.47957 -2.96958,-0.47034c-0.69015,-0.94991 -0.47957,-2.27943 0.47034,-2.96958c0.9499,-0.69015 2.27943,-0.47957 2.96958,0.47034c0.69015,0.9499 0.47957,2.27944 -0.47034,2.96958z" id="path8129"/>
   <path opacity="0.5" fill="#cccccc" d="m140.17245,12.24183c0.60472,1.86114 -0.41381,3.86011 -2.27495,4.46483c-1.86114,0.60472 -3.86011,-0.41381 -4.46483,-2.27495c-0.60472,-1.86113 0.4138,-3.86011 2.27495,-4.46483c1.86113,-0.60472 3.86011,0.41381 4.46483,2.27495z" id="path8131"/>
   <path fill="#000000" id="path8133" d="m138.82444,12.67981c0.36283,1.11668 -0.24829,2.31607 -1.36497,2.6789c-1.11669,0.36283 -2.31607,-0.24828 -2.6789,-1.36497c-0.36283,-1.11668 0.24828,-2.31607 1.36497,-2.6789c1.11668,-0.36283 2.31607,0.24829 2.6789,1.36497z"/>
   <path opacity="0.5" fill="none" stroke="#cc00ca" stroke-width="7.08661" stroke-linecap="round" stroke-linejoin="round" stroke-miterlimit="4" stroke-dashoffset="0" id="path8161" d="m61.87448,138.41018l8.39719,-25.81941"/>
   <path fill="#000000" id="path8163" d="m70.17342,110.49533c1.17415,0 2.12599,0.95184 2.12599,2.12599c0,1.17415 -0.95184,2.12599 -2.12599,2.12599c-1.17415,0 -2.12599,-0.95183 -2.12599,-2.12599c0,-1.17415 0.95184,-2.12599 2.12599,-2.12599z"/>
   <path opacity="0.5" fill="#cccccc" id="path8165" d="m53.32397,121.31985c0.60472,-1.86114 2.6037,-2.87966 4.46483,-2.27495c1.86114,0.60472 2.87967,2.60369 2.27495,4.46483c-0.60472,1.86113 -2.60369,2.87967 -4.46483,2.27495c-1.86113,-0.60472 -2.87966,-2.6037 -2.27495,-4.46483z"/>
   <path fill="#000000" d="m54.67194,121.75782c0.36283,-1.11668 1.56222,-1.7278 2.6789,-1.36497c1.11669,0.36283 1.7278,1.56222 1.36497,2.6789c-0.36283,1.11668 -1.56221,1.7278 -2.6789,1.36497c-1.11668,-0.36283 -1.7278,-1.56222 -1.36497,-2.6789z" id="path8167"/>
   <path fill="#000000" id="path8169" d="m60.59297,139.98089c-0.94991,-0.69015 -1.16048,-2.01968 -0.47034,-2.96958c0.69015,-0.94991 2.01967,-1.16048 2.96958,-0.47034c0.9499,0.69015 1.16049,2.01967 0.47034,2.96958c-0.69015,0.9499 -2.01968,1.16048 -2.96958,0.47034z"/>
   <path opacity="0.5" fill="#cccccc" id="path8171" d="m80.58692,141.12752c-1.58318,1.15025 -3.79906,0.79928 -4.94931,-0.78389c-1.15025,-1.58318 -0.79929,-3.79906 0.78389,-4.9493c1.58317,-1.15024 3.79905,-0.79929 4.94931,0.78389c1.15024,1.58317 0.79928,3.79906 -0.78389,4.9493z"/>
   <path fill="#000000" d="m79.75384,139.9809c-0.94991,0.69015 -2.27944,0.47957 -2.96958,-0.47034c-0.69015,-0.94991 -0.47957,-2.27943 0.47034,-2.96958c0.9499,-0.69015 2.27943,-0.47957 2.96958,0.47034c0.69015,0.9499 0.47957,2.27944 -0.47034,2.96958z" id="path8173"/>
   <path opacity="0.5" fill="#cccccc" d="m87.02285,121.31985c0.60472,1.86114 -0.41381,3.86011 -2.27495,4.46483c-1.86114,0.60472 -3.86011,-0.41381 -4.46483,-2.27495c-0.60472,-1.86113 0.4138,-3.86011 2.27495,-4.46483c1.86113,-0.60472 3.86011,0.41381 4.46483,2.27495z" id="path8175"/>
   <path fill="#000000" id="path8177" d="m85.67487,121.75782c0.36283,1.11668 -0.24829,2.31607 -1.36497,2.6789c-1.11669,0.36283 -2.31607,-0.24828 -2.6789,-1.36497c-0.36283,-1.11668 0.24828,-2.31607 1.36497,-2.6789c1.11668,-0.36283 2.31607,0.24829 2.6789,1.36497z"/>
   <path opacity="0.5" fill="none" stroke="#cc00ca" stroke-width="7.08661" stroke-linecap="round" stroke-linejoin="round" stroke-miterlimit="4" stroke-dashoffset="0" id="path8205" d="m184.8422,138.26942l-8.44294,-25.66211"/>
   <path fill="#000000" id="path8207" d="m176.47258,110.49533c1.17415,0 2.12599,0.95184 2.12599,2.12599c0,1.17415 -0.95184,2.12599 -2.12599,2.12599c-1.17415,0 -2.12599,-0.95183 -2.12599,-2.12599c0,-1.17415 0.95184,-2.12599 2.12599,-2.12599z"/>
   <path opacity="0.5" fill="#cccccc" id="path8209" d="m159.62315,121.31984c0.60472,-1.86114 2.6037,-2.87966 4.46483,-2.27495c1.86114,0.60472 2.87967,2.60369 2.27495,4.46483c-0.60472,1.86113 -2.60369,2.87967 -4.46483,2.27495c-1.86113,-0.60472 -2.87966,-2.6037 -2.27495,-4.46483z"/>
   <path fill="#000000" d="m160.97114,121.75781c0.36283,-1.11668 1.56222,-1.7278 2.6789,-1.36497c1.11669,0.36283 1.7278,1.56222 1.36497,2.6789c-0.36283,1.11668 -1.56221,1.7278 -2.6789,1.36497c-1.11668,-0.36283 -1.7278,-1.56222 -1.36497,-2.6789z" id="path8211"/>
   <path opacity="0.5" fill="#cccccc" d="m166.05907,141.12754c-1.58318,-1.15025 -1.93414,-3.36613 -0.78389,-4.9493c1.15025,-1.58318 3.36612,-1.93414 4.94931,-0.78389c1.58317,1.15024 1.93414,3.36612 0.78389,4.9493c-1.15024,1.58317 -3.36613,1.93414 -4.94931,0.78389z" id="path8213"/>
   <path fill="#000000" id="path8215" d="m166.89215,139.98086c-0.94991,-0.69015 -1.16048,-2.01968 -0.47034,-2.96958c0.69015,-0.94991 2.01967,-1.16048 2.96958,-0.47034c0.9499,0.69015 1.16049,2.01967 0.47034,2.96958c-0.69015,0.9499 -2.01968,1.16048 -2.96958,0.47034z"/>
   <path fill="#000000" d="m186.05304,139.9809c-0.94991,0.69015 -2.27944,0.47957 -2.96958,-0.47034c-0.69015,-0.94991 -0.47957,-2.27943 0.47034,-2.96958c0.9499,-0.69015 2.27943,-0.47957 2.96958,0.47034c0.69015,0.9499 0.47957,2.27944 -0.47034,2.96958z" id="path8217"/>
   <path opacity="0.5" fill="#cccccc" d="m193.32205,121.31985c0.60472,1.86114 -0.41381,3.86011 -2.27495,4.46483c-1.86114,0.60472 -3.86011,-0.41381 -4.46483,-2.27495c-0.60472,-1.86113 0.4138,-3.86011 2.27495,-4.46483c1.86113,-0.60472 3.86011,0.41381 4.46483,2.27495z" id="path8219"/>
   <path fill="#000000" id="path8221" d="m191.97404,121.75782c0.36283,1.11668 -0.24829,2.31607 -1.36497,2.6789c-1.11669,0.36283 -2.31607,-0.24828 -2.6789,-1.36497c-0.36283,-1.11668 0.24828,-2.31607 1.36497,-2.6789c1.11668,-0.36283 2.31607,0.24829 2.6789,1.36497z"/>
   <path opacity="0.5" fill="none" stroke="#cc00ca" stroke-width="7.08661" stroke-linecap="round" stroke-linejoin="round" stroke-miterlimit="4" stroke-dashoffset="0" id="path8227" d="m25.33789,138.31477l-21.82946,-15.88607"/>
   <path opacity="0.5" fill="#cccccc" d="m17.02382,109.07797c1.95692,0 3.54331,1.5864 3.54331,3.54331c0,1.95692 -1.58639,3.54331 -3.54331,3.54331c-1.95691,0 -3.54331,-1.58639 -3.54331,-3.54331c0,-1.95691 1.5864,-3.54331 3.54331,-3.54331z" id="path8229"/>
   <path fill="#000000" id="path8231" d="m17.02382,110.49529c1.17415,0 2.12599,0.95184 2.12599,2.12599c0,1.17415 -0.95184,2.12599 -2.12599,2.12599c-1.17415,0 -2.12599,-0.95183 -2.12599,-2.12599c0,-1.17415 0.95184,-2.12599 2.12599,-2.12599z"/>
   <path fill="#000000" d="m1.52235,121.75778c0.36283,-1.11668 1.56222,-1.7278 2.6789,-1.36497c1.11669,0.36283 1.7278,1.56222 1.36497,2.6789c-0.36283,1.11668 -1.56221,1.7278 -2.6789,1.36497c-1.11668,-0.36283 -1.7278,-1.56222 -1.36497,-2.6789z" id="path8233"/>
   <path opacity="0.5" fill="#cccccc" d="m6.6103,141.12747c-1.58318,-1.15025 -1.93414,-3.36613 -0.78389,-4.9493c1.15025,-1.58318 3.36612,-1.93414 4.94931,-0.78389c1.58317,1.15024 1.93414,3.36612 0.78389,4.9493c-1.15024,1.58317 -3.36613,1.93414 -4.94931,0.78389z" id="path8235"/>
   <path fill="#000000" id="path8237" d="m7.44337,139.98083c-0.94991,-0.69015 -1.16048,-2.01968 -0.47034,-2.96958c0.69015,-0.94991 2.01967,-1.16048 2.96958,-0.47034c0.9499,0.69015 1.16049,2.01967 0.47034,2.96958c-0.69015,0.9499 -2.01968,1.16048 -2.96958,0.47034z"/>
   <path fill="#000000" d="m26.60425,139.98084c-0.94991,0.69015 -2.27944,0.47957 -2.96958,-0.47034c-0.69015,-0.94991 -0.47957,-2.27943 0.47034,-2.96958c0.9499,-0.69015 2.27943,-0.47957 2.96958,0.47034c0.69015,0.9499 0.47957,2.27944 -0.47034,2.96958z" id="path8239"/>
   <path opacity="0.5" fill="#cccccc" d="m33.87326,121.31982c0.60472,1.86114 -0.41381,3.86011 -2.27495,4.46483c-1.86114,0.60472 -3.86011,-0.41381 -4.46483,-2.27495c-0.60472,-1.86113 0.4138,-3.86011 2.27495,-4.46483c1.86113,-0.60472 3.86011,0.41381 4.46483,2.27495z" id="path8241"/>
   <path fill="#000000" id="path8243" d="m32.52528,121.75779c0.36283,1.11668 -0.24829,2.31607 -1.36497,2.6789c-1.11669,0.36283 -2.31607,-0.24828 -2.6789,-1.36497c-0.36283,-1.11668 0.24828,-2.31607 1.36497,-2.6789c1.11668,-0.36283 2.31607,0.24829 2.6789,1.36497z"/>
   <path opacity="0.5" fill="none" stroke="#cc00ca" stroke-width="7.08661" stroke-linecap="round" stroke-linejoin="round" stroke-miterlimit="4" stroke-dashoffset="0" id="path8293" d="m109.80764,122.45384l26.99521,0"/>
   <path opacity="0.5" fill="#cccccc" d="m123.32302,109.07804c1.95692,0 3.54331,1.5864 3.54331,3.54331c0,1.95692 -1.58639,3.54331 -3.54331,3.54331c-1.95691,0 -3.54331,-1.58639 -3.54331,-3.54331c0,-1.95691 1.5864,-3.54331 3.54331,-3.54331z" id="path8295"/>
   <path fill="#000000" id="path8297" d="m123.32301,110.49536c1.17415,0 2.12599,0.95184 2.12599,2.12599c0,1.17415 -0.95184,2.12599 -2.12599,2.12599c-1.17415,0 -2.12599,-0.95183 -2.12599,-2.12599c0,-1.17415 0.95184,-2.12599 2.12599,-2.12599z"/>
   <path fill="#000000" d="m107.82157,121.75784c0.36283,-1.11668 1.56222,-1.7278 2.6789,-1.36497c1.11669,0.36283 1.7278,1.56222 1.36497,2.6789c-0.36283,1.11668 -1.56221,1.7278 -2.6789,1.36497c-1.11668,-0.36283 -1.7278,-1.56222 -1.36497,-2.6789z" id="path8299"/>
   <path opacity="0.5" fill="#cccccc" d="m112.9095,141.12757c-1.58318,-1.15025 -1.93414,-3.36613 -0.78389,-4.9493c1.15025,-1.58318 3.36612,-1.93414 4.94931,-0.78389c1.58317,1.15024 1.93414,3.36612 0.78389,4.9493c-1.15024,1.58317 -3.36613,1.93414 -4.94931,0.78389z" id="path8301"/>
   <path fill="#000000" id="path8303" d="m113.74258,139.98089c-0.94991,-0.69015 -1.16048,-2.01968 -0.47034,-2.96958c0.69015,-0.94991 2.01967,-1.16048 2.96958,-0.47034c0.9499,0.69015 1.16049,2.01967 0.47034,2.96958c-0.69015,0.9499 -2.01968,1.16048 -2.96958,0.47034z"/>
   <path opacity="0.5" fill="#cccccc" id="path8305" d="m133.73655,141.12755c-1.58318,1.15025 -3.79906,0.79928 -4.94931,-0.78389c-1.15025,-1.58318 -0.79929,-3.79906 0.78389,-4.9493c1.58317,-1.15024 3.79905,-0.79929 4.94931,0.78389c1.15024,1.58317 0.79928,3.79906 -0.78389,4.9493z"/>
   <path fill="#000000" d="m132.90347,139.98093c-0.94991,0.69015 -2.27944,0.47957 -2.96958,-0.47034c-0.69015,-0.94991 -0.47957,-2.27943 0.47034,-2.96958c0.9499,-0.69015 2.27943,-0.47957 2.96958,0.47034c0.69015,0.9499 0.47957,2.27944 -0.47034,2.96958z" id="path8307"/>
   <path fill="#000000" id="path8309" d="m138.8245,121.75785c0.36283,1.11668 -0.24829,2.31607 -1.36497,2.6789c-1.11669,0.36283 -2.31607,-0.24828 -2.6789,-1.36497c-0.36283,-1.11668 0.24828,-2.31607 1.36497,-2.6789c1.11668,-0.36283 2.31607,0.24829 2.6789,1.36497z"/>
   <path opacity="0.5" fill="none" stroke="#cc00ca" stroke-width="7.08661" stroke-linecap="round" stroke-linejoin="round" stroke-miterlimit="4" stroke-dashoffset="0" id="path8315" d="m221.31836,138.31432l21.79789,-15.81707"/>
   <path opacity="0.5" fill="#cccccc" d="m229.62221,109.07802c1.95692,0 3.54331,1.5864 3.54331,3.54331c0,1.95692 -1.58639,3.54331 -3.54331,3.54331c-1.95691,0 -3.54331,-1.58639 -3.54331,-3.54331c0,-1.95691 1.5864,-3.54331 3.54331,-3.54331z" id="path8317"/>
   <path fill="#000000" id="path8319" d="m229.62224,110.49535c1.17415,0 2.12599,0.95184 2.12599,2.12599c0,1.17415 -0.95184,2.12599 -2.12599,2.12599c-1.17415,0 -2.12599,-0.95183 -2.12599,-2.12599c0,-1.17415 0.95184,-2.12599 2.12599,-2.12599z"/>
   <path opacity="0.5" fill="#cccccc" id="path8321" d="m212.77279,121.31987c0.60472,-1.86114 2.6037,-2.87966 4.46483,-2.27495c1.86114,0.60472 2.87967,2.60369 2.27495,4.46483c-0.60472,1.86113 -2.60369,2.87967 -4.46483,2.27495c-1.86113,-0.60472 -2.87966,-2.6037 -2.27495,-4.46483z"/>
   <path fill="#000000" d="m214.12077,121.75784c0.36283,-1.11668 1.56222,-1.7278 2.6789,-1.36497c1.11669,0.36283 1.7278,1.56222 1.36497,2.6789c-0.36283,1.11668 -1.56221,1.7278 -2.6789,1.36497c-1.11668,-0.36283 -1.7278,-1.56222 -1.36497,-2.6789z" id="path8323"/>
   <path fill="#000000" id="path8325" d="m220.0418,139.98089c-0.94991,-0.69015 -1.16048,-2.01968 -0.47034,-2.96958c0.69015,-0.94991 2.01967,-1.16048 2.96958,-0.47034c0.9499,0.69015 1.16049,2.01967 0.47034,2.96958c-0.69015,0.9499 -2.01968,1.16048 -2.96958,0.47034z"/>
   <path opacity="0.5" fill="#cccccc" id="path8327" d="m240.03574,141.12755c-1.58318,1.15025 -3.79906,0.79928 -4.94931,-0.78389c-1.15025,-1.58318 -0.79929,-3.79906 0.78389,-4.9493c1.58317,-1.15024 3.79905,-0.79929 4.94931,0.78389c1.15024,1.58317 0.79928,3.79906 -0.78389,4.9493z"/>
   <path fill="#000000" d="m239.20266,139.9809c-0.94991,0.69015 -2.27944,0.47957 -2.96958,-0.47034c-0.69015,-0.94991 -0.47957,-2.27943 0.47034,-2.96958c0.9499,-0.69015 2.27943,-0.47957 2.96958,0.47034c0.69015,0.9499 0.47957,2.27944 -0.47034,2.96958z" id="path8329"/>
   <path fill="#000000" id="path8331" d="m245.12369,121.75785c0.36283,1.11668 -0.24829,2.31607 -1.36497,2.6789c-1.11669,0.36283 -2.31607,-0.24828 -2.6789,-1.36497c-0.36283,-1.11668 0.24828,-2.31607 1.36497,-2.6789c1.11668,-0.36283 2.31607,0.24829 2.6789,1.36497z"/>
   <path opacity="0.5" fill="none" stroke="#cc00ca" stroke-width="7.08661" stroke-linecap="round" stroke-linejoin="round" stroke-miterlimit="4" stroke-dashoffset="0" id="path8139" d="m216.22221,70.86141l13.34133,-9.8098"/>
   <path fill="#000000" id="path8141" d="m229.62224,58.95628c1.17415,0 2.12599,0.95184 2.12599,2.12599c0,1.17415 -0.95184,2.12599 -2.12599,2.12599c-1.17415,0 -2.12599,-0.95183 -2.12599,-2.12599c0,-1.17415 0.95184,-2.12599 2.12599,-2.12599z"/>
   <path fill="#000000" d="m214.12077,70.21876c0.36283,-1.11668 1.56222,-1.7278 2.6789,-1.36497c1.11669,0.36283 1.7278,1.56222 1.36497,2.6789c-0.36283,1.11668 -1.56221,1.7278 -2.6789,1.36497c-1.11668,-0.36283 -1.7278,-1.56222 -1.36497,-2.6789z" id="path8143"/>
   <path opacity="0.5" fill="#cccccc" d="m219.20873,89.58847c-1.58318,-1.15025 -1.93414,-3.36613 -0.78389,-4.9493c1.15025,-1.58318 3.36612,-1.93414 4.94931,-0.78389c1.58317,1.15024 1.93414,3.36612 0.78389,4.9493c-1.15024,1.58317 -3.36613,1.93414 -4.94931,0.78389z" id="path8145"/>
   <path fill="#000000" id="path8147" d="m220.0418,88.44183c-0.94991,-0.69015 -1.16048,-2.01968 -0.47034,-2.96958c0.69015,-0.94991 2.01967,-1.16048 2.96958,-0.47034c0.9499,0.69015 1.16049,2.01967 0.47034,2.96958c-0.69015,0.9499 -2.01968,1.16048 -2.96958,0.47034z"/>
   <path opacity="0.5" fill="#cccccc" id="path8149" d="m240.03574,89.58849c-1.58318,1.15025 -3.79906,0.79928 -4.94931,-0.78389c-1.15025,-1.58318 -0.79929,-3.79906 0.78389,-4.9493c1.58317,-1.15024 3.79905,-0.79929 4.94931,0.78389c1.15024,1.58317 0.79928,3.79906 -0.78389,4.9493z"/>
   <path fill="#000000" d="m239.20266,88.44183c-0.94991,0.69015 -2.27944,0.47957 -2.96958,-0.47034c-0.69015,-0.94991 -0.47957,-2.27943 0.47034,-2.96958c0.9499,-0.69015 2.27943,-0.47957 2.96958,0.47034c0.69015,0.9499 0.47957,2.27944 -0.47034,2.96958z" id="path8151"/>
   <path opacity="0.5" fill="#cccccc" d="m246.47164,69.7808c0.60472,1.86114 -0.41381,3.86011 -2.27495,4.46483c-1.86114,0.60472 -3.86011,-0.41381 -4.46483,-2.27495c-0.60472,-1.86113 0.4138,-3.86011 2.27495,-4.46483c1.86113,-0.60472 3.86011,0.41381 4.46483,2.27495z" id="path8153"/>
   <path fill="#000000" id="path8155" d="m245.12369,70.21877c0.36283,1.11668 -0.24829,2.31607 -1.36497,2.6789c-1.11669,0.36283 -2.31607,-0.24828 -2.6789,-1.36497c-0.36283,-1.11668 0.24828,-2.31607 1.36497,-2.6789c1.11668,-0.36283 2.31607,0.24829 2.6789,1.36497z"/>
   <path opacity="0.5" fill="none" stroke="#cc00ca" stroke-width="7.08661" stroke-linecap="round" stroke-linejoin="round" stroke-miterlimit="4" stroke-dashoffset="0" id="path8183" d="m168.1785,86.685l-5.2213,-15.83052"/>
   <path opacity="0.5" fill="#cccccc" d="m176.47258,57.53897c1.95692,0 3.54331,1.5864 3.54331,3.54331c0,1.95692 -1.58639,3.54331 -3.54331,3.54331c-1.95691,0 -3.54331,-1.58639 -3.54331,-3.54331c0,-1.95691 1.5864,-3.54331 3.54331,-3.54331z" id="path8185"/>
   <path fill="#000000" id="path8187" d="m176.47258,58.95629c1.17415,0 2.12599,0.95184 2.12599,2.12599c0,1.17415 -0.95184,2.12599 -2.12599,2.12599c-1.17415,0 -2.12599,-0.95183 -2.12599,-2.12599c0,-1.17415 0.95184,-2.12599 2.12599,-2.12599z"/>
   <path fill="#000000" d="m160.97114,70.21878c0.36283,-1.11668 1.56222,-1.7278 2.6789,-1.36497c1.11669,0.36283 1.7278,1.56222 1.36497,2.6789c-0.36283,1.11668 -1.56221,1.7278 -2.6789,1.36497c-1.11668,-0.36283 -1.7278,-1.56222 -1.36497,-2.6789z" id="path8189"/>
   <path fill="#000000" id="path8191" d="m166.89215,88.44183c-0.94991,-0.69015 -1.16048,-2.01968 -0.47034,-2.96958c0.69015,-0.94991 2.01967,-1.16048 2.96958,-0.47034c0.9499,0.69015 1.16049,2.01967 0.47034,2.96958c-0.69015,0.9499 -2.01968,1.16048 -2.96958,0.47034z"/>
   <path opacity="0.5" fill="#cccccc" id="path8193" d="m186.88609,89.58849c-1.58318,1.15025 -3.79906,0.79928 -4.94931,-0.78389c-1.15025,-1.58318 -0.79929,-3.79906 0.78389,-4.9493c1.58317,-1.15024 3.79905,-0.79929 4.94931,0.78389c1.15024,1.58317 0.79928,3.79906 -0.78389,4.9493z"/>
   <path fill="#000000" d="m186.05304,88.44183c-0.94991,0.69015 -2.27944,0.47957 -2.96958,-0.47034c-0.69015,-0.94991 -0.47957,-2.27943 0.47034,-2.96958c0.9499,-0.69015 2.27943,-0.47957 2.96958,0.47034c0.69015,0.9499 0.47957,2.27944 -0.47034,2.96958z" id="path8195"/>
   <path opacity="0.5" fill="#cccccc" d="m193.32205,69.7808c0.60472,1.86114 -0.41381,3.86011 -2.27495,4.46483c-1.86114,0.60472 -3.86011,-0.41381 -4.46483,-2.27495c-0.60472,-1.86113 0.4138,-3.86011 2.27495,-4.46483c1.86113,-0.60472 3.86011,0.41381 4.46483,2.27495z" id="path8197"/>
   <path fill="#000000" id="path8199" d="m191.97404,70.21878c0.36283,1.11668 -0.24829,2.31607 -1.36497,2.6789c-1.11669,0.36283 -2.31607,-0.24828 -2.6789,-1.36497c-0.36283,-1.11668 0.24828,-2.31607 1.36497,-2.6789c1.11668,-0.36283 2.31607,0.24829 2.6789,1.36497z"/>
   <path opacity="0.5" fill="none" stroke="#cc00ca" stroke-width="7.08661" stroke-linecap="round" stroke-linejoin="round" stroke-miterlimit="4" stroke-dashoffset="0" id="path8249" d="m114.97339,86.76568l16.71925,-0.0555"/>
   <path opacity="0.5" fill="#cccccc" d="m123.32302,57.53905c1.95692,0 3.54331,1.5864 3.54331,3.54331c0,1.95692 -1.58639,3.54331 -3.54331,3.54331c-1.95691,0 -3.54331,-1.58639 -3.54331,-3.54331c0,-1.95691 1.5864,-3.54331 3.54331,-3.54331z" id="path8251"/>
   <path fill="#000000" id="path8253" d="m123.32301,58.95637c1.17415,0 2.12599,0.95184 2.12599,2.12599c0,1.17415 -0.95184,2.12599 -2.12599,2.12599c-1.17415,0 -2.12599,-0.95183 -2.12599,-2.12599c0,-1.17415 0.95184,-2.12599 2.12599,-2.12599z"/>
   <path opacity="0.5" fill="#cccccc" id="path8255" d="m106.47358,69.78088c0.60472,-1.86114 2.6037,-2.87966 4.46483,-2.27495c1.86114,0.60472 2.87967,2.60369 2.27495,4.46483c-0.60472,1.86113 -2.60369,2.87967 -4.46483,2.27495c-1.86113,-0.60472 -2.87966,-2.6037 -2.27495,-4.46483z"/>
   <path fill="#000000" d="m107.82157,70.21885c0.36283,-1.11668 1.56222,-1.7278 2.6789,-1.36497c1.11669,0.36283 1.7278,1.56222 1.36497,2.6789c-0.36283,1.11668 -1.56221,1.7278 -2.6789,1.36497c-1.11668,-0.36283 -1.7278,-1.56222 -1.36497,-2.6789z" id="path8257"/>
   <path fill="#000000" id="path8259" d="m113.74258,88.44192c-0.94991,-0.69015 -1.16048,-2.01968 -0.47034,-2.96958c0.69015,-0.94991 2.01967,-1.16048 2.96958,-0.47034c0.9499,0.69015 1.16049,2.01967 0.47034,2.96958c-0.69015,0.9499 -2.01968,1.16048 -2.96958,0.47034z"/>
   <path fill="#000000" d="m132.90347,88.44193c-0.94991,0.69015 -2.27944,0.47957 -2.96958,-0.47034c-0.69015,-0.94991 -0.47957,-2.27943 0.47034,-2.96958c0.9499,-0.69015 2.27943,-0.47957 2.96958,0.47034c0.69015,0.9499 0.47957,2.27944 -0.47034,2.96958z" id="path8261"/>
   <path opacity="0.5" fill="#cccccc" d="m140.17245,69.78089c0.60472,1.86114 -0.41381,3.86011 -2.27495,4.46483c-1.86114,0.60472 -3.86011,-0.41381 -4.46483,-2.27495c-0.60472,-1.86113 0.4138,-3.86011 2.27495,-4.46483c1.86113,-0.60472 3.86011,0.41381 4.46483,2.27495z" id="path8263"/>
   <path fill="#000000" id="path8265" d="m138.8245,70.21886c0.36283,1.11668 -0.24829,2.31607 -1.36497,2.6789c-1.11669,0.36283 -2.31607,-0.24828 -2.6789,-1.36497c-0.36283,-1.11668 0.24828,-2.31607 1.36497,-2.6789c1.11668,-0.36283 2.31607,0.24829 2.6789,1.36497z"/>
   <path opacity="0.5" fill="none" stroke="#cc00ca" stroke-width="7.08661" stroke-linecap="round" stroke-linejoin="round" stroke-miterlimit="4" stroke-dashoffset="0" id="path8271" d="m30.61473,70.86931l-13.6087,-9.88713"/>
   <path fill="#000000" id="path8273" d="m17.02382,58.95622c1.17415,0 2.12599,0.95184 2.12599,2.12599c0,1.17415 -0.95184,2.12599 -2.12599,2.12599c-1.17415,0 -2.12599,-0.95183 -2.12599,-2.12599c0,-1.17415 0.95184,-2.12599 2.12599,-2.12599z"/>
   <path opacity="0.5" fill="#cccccc" id="path8275" d="m0.17438,69.78074c0.60472,-1.86114 2.6037,-2.87966 4.46483,-2.27495c1.86114,0.60472 2.87967,2.60369 2.27495,4.46483c-0.60472,1.86113 -2.60369,2.87967 -4.46483,2.27495c-1.86113,-0.60472 -2.87966,-2.6037 -2.27495,-4.46483z"/>
   <path fill="#000000" d="m1.52235,70.2187c0.36283,-1.11668 1.56222,-1.7278 2.6789,-1.36497c1.11669,0.36283 1.7278,1.56222 1.36497,2.6789c-0.36283,1.11668 -1.56221,1.7278 -2.6789,1.36497c-1.11668,-0.36283 -1.7278,-1.56222 -1.36497,-2.6789z" id="path8277"/>
   <path opacity="0.5" fill="#cccccc" d="m6.6103,89.58841c-1.58318,-1.15025 -1.93414,-3.36613 -0.78389,-4.9493c1.15025,-1.58318 3.36612,-1.93414 4.94931,-0.78389c1.58317,1.15024 1.93414,3.36612 0.78389,4.9493c-1.15024,1.58317 -3.36613,1.93414 -4.94931,0.78389z" id="path8279"/>
   <path fill="#000000" id="path8281" d="m7.44337,88.44177c-0.94991,-0.69015 -1.16048,-2.01968 -0.47034,-2.96958c0.69015,-0.94991 2.01967,-1.16048 2.96958,-0.47034c0.9499,0.69015 1.16049,2.01967 0.47034,2.96958c-0.69015,0.9499 -2.01968,1.16048 -2.96958,0.47034z"/>
   <path opacity="0.5" fill="#cccccc" id="path8283" d="m27.43736,89.58843c-1.58318,1.15025 -3.79906,0.79928 -4.94931,-0.78389c-1.15025,-1.58318 -0.79929,-3.79906 0.78389,-4.9493c1.58317,-1.15024 3.79905,-0.79929 4.94931,0.78389c1.15024,1.58317 0.79928,3.79906 -0.78389,4.9493z"/>
   <path fill="#000000" d="m26.60425,88.44177c-0.94991,0.69015 -2.27944,0.47957 -2.96958,-0.47034c-0.69015,-0.94991 -0.47957,-2.27943 0.47034,-2.96958c0.9499,-0.69015 2.27943,-0.47957 2.96958,0.47034c0.69015,0.9499 0.47957,2.27944 -0.47034,2.96958z" id="path8285"/>
   <path fill="#000000" id="path8287" d="m32.52528,70.21871c0.36283,1.11668 -0.24829,2.31607 -1.36497,2.6789c-1.11669,0.36283 -2.31607,-0.24828 -2.6789,-1.36497c-0.36283,-1.11668 0.24828,-2.31607 1.36497,-2.6789c1.11668,-0.36283 2.31607,0.24829 2.6789,1.36497z"/>
   <path opacity="0.5" fill="none" stroke="#cc00ca" stroke-width="7.08661" stroke-linecap="round" stroke-linejoin="round" stroke-miterlimit="4" stroke-dashoffset="0" id="path8337" d="m83.61799,70.89471l-5.11956,15.83399"/>
   <path opacity="0.5" fill="#cccccc" id="path8339" d="m72.28117,63.96111c-1.58318,1.15025 -3.79906,0.79928 -4.94931,-0.78389c-1.15025,-1.58318 -0.79929,-3.79906 0.78389,-4.9493c1.58317,-1.15024 3.79905,-0.79929 4.94931,0.78389c1.15024,1.58317 0.79928,3.79906 -0.78389,4.9493z"/>
   <path fill="#000000" id="path8341" d="m70.17342,58.95631c1.17415,0 2.12599,0.95184 2.12599,2.12599c0,1.17415 -0.95184,2.12599 -2.12599,2.12599c-1.17415,0 -2.12599,-0.95183 -2.12599,-2.12599c0,-1.17415 0.95184,-2.12599 2.12599,-2.12599z"/>
   <path opacity="0.5" fill="#cccccc" id="path8343" d="m53.32397,69.78082c0.60472,-1.86114 2.6037,-2.87966 4.46483,-2.27495c1.86114,0.60472 2.87967,2.60369 2.27495,4.46483c-0.60472,1.86113 -2.60369,2.87967 -4.46483,2.27495c-1.86113,-0.60472 -2.87966,-2.6037 -2.27495,-4.46483z"/>
   <path fill="#000000" d="m54.67194,70.21879c0.36283,-1.11668 1.56222,-1.7278 2.6789,-1.36497c1.11669,0.36283 1.7278,1.56222 1.36497,2.6789c-0.36283,1.11668 -1.56221,1.7278 -2.6789,1.36497c-1.11668,-0.36283 -1.7278,-1.56222 -1.36497,-2.6789z" id="path8345"/>
   <path opacity="0.5" fill="#cccccc" d="m59.75989,89.5885c-1.58318,-1.15025 -1.93414,-3.36613 -0.78389,-4.9493c1.15025,-1.58318 3.36612,-1.93414 4.94931,-0.78389c1.58317,1.15024 1.93414,3.36612 0.78389,4.9493c-1.15024,1.58317 -3.36613,1.93414 -4.94931,0.78389z" id="path8347"/>
   <path fill="#000000" id="path8349" d="m60.59297,88.44186c-0.94991,-0.69015 -1.16048,-2.01968 -0.47034,-2.96958c0.69015,-0.94991 2.01967,-1.16048 2.96958,-0.47034c0.9499,0.69015 1.16049,2.01967 0.47034,2.96958c-0.69015,0.9499 -2.01968,1.16048 -2.96958,0.47034z"/>
   <path fill="#000000" d="m79.75384,88.44187c-0.94991,0.69015 -2.27944,0.47957 -2.96958,-0.47034c-0.69015,-0.94991 -0.47957,-2.27943 0.47034,-2.96958c0.9499,-0.69015 2.27943,-0.47957 2.96958,0.47034c0.69015,0.9499 0.47957,2.27944 -0.47034,2.96958z" id="path8351"/>
   <path fill="#000000" id="path8353" d="m85.67487,70.2188c0.36283,1.11668 -0.24829,2.31607 -1.36497,2.6789c-1.11669,0.36283 -2.31607,-0.24828 -2.6789,-1.36497c-0.36283,-1.11668 0.24828,-2.31607 1.36497,-2.6789c1.11668,-0.36283 2.31607,0.24829 2.6789,1.36497z"/>
  </g>
 </g>
</svg>